<svg xmlns="http://www.w3.org/2000/svg" width="256" height="256" preserveAspectRatio="xMidYMid" viewBox="0 0 256 256"><path fill="#1ed760" d="M128 0a128 128 0 1 0 0 256 128 128 0 0 0 0-256m58.7 184.6a8 8 0 0 1-11 2.7c-30-18.4-67.9-22.6-112.4-12.4a8 8 0 0 1-9.6-6 8 8 0 0 1 6-9.5c48.8-11.2 90.6-6.4 124.4 14.2a8 8 0 0 1 2.6 11m15.7-34.8a10 10 0 0 1-13.8 3.2c-34.4-21.1-86.8-27.2-127.5-14.9a10 10 0 0 1-5.8-19c46.5-14.2 104.3-7.3 143.8 17a10 10 0 0 1 3.3 13.7m1.3-36.3C162.5 89 94.4 86.7 55 98.7a12 12 0 1 1-7-23C93.4 62 168.5 64.8 216 93a12 12 0 1 1-12.3 20.6"/></svg>