<svg xmlns="http://www.w3.org/2000/svg" xmlns:xlink="http://www.w3.org/1999/xlink" fill="#fff" viewBox="0 0 65 65"><use xlink:href="#a" x=".5" y=".5"/><defs><linearGradient id="b" x1="50%" x2="50%" y1="0%" y2="100%"><stop offset="0%" stop-color="#111d2e"/><stop offset="21.2%" stop-color="#051839"/><stop offset="40.7%" stop-color="#0a1b48"/><stop offset="58.1%" stop-color="#132e62"/><stop offset="73.8%" stop-color="#144b7e"/><stop offset="87.3%" stop-color="#136497"/><stop offset="100%" stop-color="#1387b8"/></linearGradient></defs><symbol id="a"><path fill="url(#b)" d="M1.3 41.2A32 32 0 1 0 0 29.9c2.1 3.5 3 5.6 1.3 11.3"/><path d="M30.3 24v.1l-7.8 11.4q-2 0-3.8.7l-1.5.8L0 29.9s-.4 6.5 1.3 11.4l12.2 5a9 9 0 0 0 5.2 6.3 9 9 0 0 0 11.6-4.8 9 9 0 0 0 .7-3.6l11.2-8h.3A12.2 12.2 0 1 0 30.3 24m-1.9 23a7 7 0 0 1-9 3.7 7 7 0 0 1-3.4-3.3l4 1.6a5 5 0 0 0 6.5-2.7 5 5 0 0 0-2.7-6.6L19.7 38a7 7 0 0 1 8.7 3.8q1 2.6 0 5.2m14-14.9a8 8 0 0 1-8-8.1 8 8 0 0 1 8-8.1 8 8 0 0 1 8.2 8 8 8 0 0 1-8.1 8.2M36.4 24a6 6 0 0 1 6-6.1 6 6 0 0 1 6.2 6 6 6 0 0 1-6.1 6.2 6 6 0 0 1-6.1-6.1"/></symbol></svg>