<svg xmlns="http://www.w3.org/2000/svg" id="tiktok_icon_light__Layer_2" viewBox="0 0 352.3 398.7"><defs><style>.tiktok_icon_light__cls-1{fill:#fe2c55}.tiktok_icon_light__cls-2{fill:#25f4ee}</style></defs><g id="tiktok_icon_light__Layer_1-2"><path d="M137.2 157v-15.6a121 121 0 0 0-85.6 218.7A121 121 0 0 1 137.2 157" class="tiktok_icon_light__cls-2"/><path d="M140 333c29.8 0 54-23.7 55.1-53.1l.1-263.2h48.1q-1.5-8.1-1.5-16.7H176l-.1 263.2A55.2 55.2 0 0 1 95.3 310a55 55 0 0 0 44.7 23m193.1-227V91.4a91 91 0 0 1-49.7-14.8A91 91 0 0 0 333 106" class="tiktok_icon_light__cls-2"/><path d="M283.4 76.6a91 91 0 0 1-22.5-60h-17.6a92 92 0 0 0 40 60M120.9 205.9a55.3 55.3 0 0 0-25.6 104 55.3 55.3 0 0 1 61-84.9v-67a120 120 0 0 0-16.3-1h-2.8v51.6a55 55 0 0 0-16.3-2.6" class="tiktok_icon_light__cls-1"/><path d="M333.1 106v51c-34 0-65.6-10.9-91.3-29.3V261a121 121 0 0 1-190.2 99c22 23.7 53.5 38.6 88.4 38.6a121 121 0 0 0 120.9-121V144.4a156 156 0 0 0 91.4 29.4V108q-9.9 0-19.2-2" class="tiktok_icon_light__cls-1"/><path d="M241.8 261.1V127.7A156 156 0 0 0 333 157v-51a91 91 0 0 1-49.7-29.4 92 92 0 0 1-40-60h-48.2V280a55.2 55.2 0 0 1-100 30 55.2 55.2 0 0 1 42-101.4V157a121 121 0 0 0-85.6 203 121 121 0 0 0 190.2-99"/></g></svg>